<?xml version="1.0" encoding="iso-8859-1"?>
<!-- Generator: Adobe Illustrator 17.0.0, SVG Export Plug-In . SVG Version: 6.00 Build 0)  -->
<!DOCTYPE svg PUBLIC "-//W3C//DTD SVG 1.1//EN" "http://www.w3.org/Graphics/SVG/1.1/DTD/svg11.dtd">
<svg version="1.1" id="Capa_1" xmlns="http://www.w3.org/2000/svg" xmlns:xlink="http://www.w3.org/1999/xlink" x="0px" y="0px"
	 width="64px" height="64px" viewBox="0 0 64 64" style="enable-background:new 0 0 64 64;" xml:space="preserve">
<g>
	<path d="M33.08,14.609c-1.224,1.15-3.576,0.984-5.323,0.93l0.407,3.99c2.994,1.486,6.221,1.132,9.372,0.32l0.449-4.399
		C36.676,14.353,34.17,16.102,33.08,14.609z"/>
	<path d="M41.21,6.021c-0.513-0.82,0-2.101,0-3.229c0-1.128-0.871-0.615-0.974-1.025c-0.103-0.41-1.333-0.359-1.333-0.359
		c-0.103,0.666-3.178,4.152-4.305,5.228c-1.128,1.076-1.076,2.153-1.076,2.153s-0.63,0.931-0.655,2.531
		c-0.025-1.6-0.655-2.531-0.655-2.531s0.051-1.076-1.076-2.153c-1.128-1.076-4.203-4.562-4.305-5.228c0,0-1.23-0.051-1.333,0.359
		c-0.102,0.41-0.974-0.102-0.974,1.025c0,1.128,0.513,2.409,0,3.229c-0.513,0.82,0.615,1.896,0.513,3.024
		c-0.096,1.06,1.303,5.291,2.45,5.878c1.717,0.058,4.448,0.348,5.383-0.984c0.162-0.231,0.46-0.178,0.562,0.073
		c0.48,1.186,2.76,0.457,3.715,0.501c0.445,0.02,0.808,0.166,1.122,0.399c1.144-0.625,2.526-4.813,2.43-5.867
		C40.595,7.917,41.722,6.841,41.21,6.021z"/>
	<path d="M55.766,48.819c0.051-0.256,1.281-0.154,1.281-0.871s0.769-1.179,0.666-1.538c-0.102-0.359-2.101-4.049-3.075-5.023
		c-0.974-0.974-4.357-5.536-5.023-7.176c-0.666-1.64-3.588-5.177-6.356-8.918c-2.061-2.786-4.233-4.348-5.209-4.965
		c-0.032,0.026-0.071,0.047-0.119,0.06c-3.336,0.883-6.753,1.26-9.925-0.257c-0.711,0.414-3.192,1.998-5.533,5.163
		c-2.768,3.742-5.689,7.278-6.356,8.918c-0.666,1.64-4.049,6.202-5.023,7.176c-0.974,0.974-2.973,4.664-3.075,5.023
		c-0.103,0.359,0.666,0.82,0.666,1.538s1.23,0.615,1.281,0.871s-0.154,1.23,0.871,1.333L10.12,51.74c0,0-0.102,0.769,0.41,0.666
		c0.513-0.103-0.871,1.23,1.128,0.974c1.999-0.256,1.076,1.128,2.102,1.281l-0.82,1.384c0,0,0.615,0.82,1.281,0.564
		c0,0-0.513,1.076-0.205,1.538s0.718-0.307,1.076-0.666c0.359-0.359,0,0.871,1.23,0.513l0.41-0.615c0,0,0.82,1.363,1.743,0.912
		l-0.051,0.831c0,0,0.871,0.051,1.076,0l-0.102,0.923l0.974-0.256c0,0-0.205,0.871,0.513,0.923c0,0-0.41,0.513-0.205,0.513
		s2.05,0.513,3.075-0.256l-0.102-0.564l0.718,0.051l0.154,0.513c0,0,0.359-0.154,1.025-0.461c0.666-0.308,0.307,0.885,0.307,0.885
		s0.718-0.396,1.23,0c0.513,0.396,1.384-0.294,2.153,0c0,0,1.076-0.065,1.179-0.321v-0.666c0,0,0.564,0.615,1.076,0.205v-0.513
		c0,0,0.369,0.043,0.787,0.085c0.003,0.04,0.007,0.068,0.011,0.069c0.067,0.017,0.296,0.006,0.575-0.016
		c0.279,0.022,0.509,0.032,0.575,0.016c0.004-0.001,0.008-0.029,0.011-0.069c0.418-0.042,0.787-0.085,0.787-0.085v0.513
		c0.513,0.41,1.076-0.205,1.076-0.205v0.666c0.102,0.256,1.179,0.321,1.179,0.321c0.769-0.294,1.64,0.396,2.153,0
		c0.513-0.396,1.23,0,1.23,0s-0.359-1.193,0.308-0.885s1.025,0.461,1.025,0.461l0.154-0.513l0.718-0.051l-0.103,0.564
		c1.025,0.769,2.87,0.256,3.075,0.256s-0.205-0.513-0.205-0.513c0.718-0.051,0.513-0.923,0.513-0.923l0.974,0.256l-0.102-0.923
		c0.205,0.051,1.076,0,1.076,0l-0.051-0.831c0.923,0.451,1.743-0.912,1.743-0.912l0.41,0.615c1.23,0.359,0.871-0.871,1.23-0.513
		c0.359,0.359,0.769,1.128,1.076,0.666s-0.205-1.538-0.205-1.538c0.666,0.256,1.281-0.564,1.281-0.564l-0.82-1.384
		c1.025-0.154,0.103-1.538,2.102-1.281c1.999,0.256,0.615-1.076,1.128-0.974c0.513,0.103,0.41-0.666,0.41-0.666l-0.718-1.589
		C55.92,50.049,55.715,49.075,55.766,48.819z"/>
</g>
</svg>
