<svg xmlns="http://www.w3.org/2000/svg" xmlns:xlink="http://www.w3.org/1999/xlink" version="1.1" x="0px" y="0px" width="100px" height="100px" viewBox="5.0 -10.0 100.0 135.0" enable-background="new 0 0 100 100" xml:space="preserve">
<g id="Captions">
	<rect x="-192" width="185" height="99"/>
	<rect y="-36" width="100" height="30"/>
	<text transform="matrix(1 0 0 1 66 -19.5)" fill="#000000" font-family="'Helvetica'" font-size="2.4">http://thenounproject.com</text>
	<text transform="matrix(1 0 0 1 7.166 -24.5)"><tspan x="0" y="0" fill="#000000" font-family="'Helvetica-Bold'" font-size="6.1578">The Noun Project</tspan><tspan x="1.12" y="4.8" fill="#000000" font-family="'Helvetica-Bold'" font-size="4">Icon Template</tspan></text>
	<text transform="matrix(1 0 0 1 -178.5 10.5)" fill="#000000" font-family="'Helvetica-Bold'" font-size="6.1578">Reminders</text>
	<line fill="#000000" stroke="#FFFFFF" stroke-miterlimit="10" x1="8" y1="-14.5" x2="18" y2="-14.5"/>
	<line fill="#000000" stroke="#FFFFFF" stroke-miterlimit="10" x1="-179" y1="16.5" x2="-162" y2="16.5"/>
	<g>
		<g>
			<g>
				<rect x="-170.802" y="31.318" fill="#000000" width="8.721" height="8.642"/>
				<path fill="#000000" d="M-164.455,42.312h4.747v-4.703h-4.747V42.312z M-159.266,42.749h-5.63V37.17h5.63V42.749      L-159.266,42.749z M-166.221,44.062h8.279v-8.203h-8.279V44.062L-166.221,44.062z M-157.5,44.5h-9.163v-9.079h9.163V44.5      L-157.5,44.5z"/>
				<polygon fill="#000000" points="-166.149,44.133 -166.292,43.991 -158.013,35.787 -157.871,35.929     "/>
			</g>
		</g>
	</g>
	<rect x="-179" y="58" fill="none" width="35" height="32.5"/>
	<text transform="matrix(1 0 0 1 -179 60.1572)"><tspan x="0" y="0" fill="#000000" font-family="'Helvetica-Bold'" font-size="3">Strokes</tspan><tspan x="0" y="5" fill="#000000" font-family="'Helvetica'" font-size="2.4">Try to keep strokes at 4px</tspan><tspan x="0" y="10" fill="#000000" font-family="'Helvetica'" font-size="2.4">Minimum stroke weight is 2px</tspan><tspan x="0" y="14.5" fill="#000000" font-family="'Helvetica'" font-size="2.4">For thicker strokes use even </tspan><tspan x="0" y="17.5" fill="#000000" font-family="'Helvetica'" font-size="2.4">numbers: 6px, 8px etc.</tspan><tspan x="0" y="22" fill="#000000" font-family="'Helvetica-Bold'" font-size="2.4">Remember to expand strokes </tspan><tspan x="0" y="25" fill="#000000" font-family="'Helvetica-Bold'" font-size="2.4">before saving as an SVG </tspan></text>
	<rect x="-136.5" y="58" fill="none" width="35" height="32.5"/>
	<text transform="matrix(1 0 0 1 -136.5 60.1572)"><tspan x="0" y="0" fill="#000000" font-family="'Helvetica-Bold'" font-size="3">Size</tspan><tspan x="0" y="5" fill="#000000" font-family="'Helvetica'" font-size="2.4">Cannot be wider or taller than </tspan><tspan x="0" y="8.5" fill="#000000" font-family="'Helvetica'" font-size="2.4">100px (artboard size)</tspan><tspan x="0" y="13.5" fill="#000000" font-family="'Helvetica'" font-size="2.4">Scale your icon to fill as much of </tspan><tspan x="0" y="16.5" fill="#000000" font-family="'Helvetica'" font-size="2.4">the artboard as possible</tspan></text>
	<rect x="-94" y="58" fill="none" width="35" height="32.5"/>
	<text transform="matrix(1 0 0 1 -94 60.1572)"><tspan x="0" y="0" fill="#000000" font-family="'Helvetica-Bold'" font-size="3">Ungroup</tspan><tspan x="0" y="5" fill="#000000" font-family="'Helvetica'" font-size="2.4">If your design has more than one </tspan><tspan x="0" y="8" fill="#000000" font-family="'Helvetica'" font-size="2.4">shape, make sure to ungroup</tspan></text>
	<rect x="-50" y="58" fill="none" width="35" height="32.5"/>
	<text transform="matrix(1 0 0 1 -50 60.1572)"><tspan x="0" y="0" fill="#000000" font-family="'Helvetica-Bold'" font-size="3">Save as</tspan><tspan x="0" y="5" fill="#000000" font-family="'Helvetica'" font-size="2.4">Save as .SVG and make sure </tspan><tspan x="0" y="8" fill="#000000" font-family="'Helvetica'" font-size="2.4">&#8220;Use Artboards&#8221; is checked</tspan></text>
	<text transform="matrix(1.0074 0 0 1 -125.542 30.5933)" fill="#000000" font-family="'Helvetica'" font-size="2.5731">100px</text>
	<text transform="matrix(1.0074 0 0 1 -41 39)" fill="#000000" font-family="'Helvetica-Bold'" font-size="5.1462">.SVG</text>
	<rect x="-126.514" y="34.815" fill="#000000" width="10.261" height="10.185"/>
	<rect x="-126.477" y="31.766" fill="#000000" width="0.522" height="2.337"/>
	<rect x="-116.812" y="31.766" fill="#000000" width="0.523" height="2.337"/>
	<rect x="-127" y="32.337" fill="#000000" width="11.233" height="0.572"/>
	<g>
		<rect x="-83.805" y="33.844" fill="#000000" width="10.305" height="10.156"/>
		<rect x="-76.809" y="28.707" fill="#000000" width="3.308" height="3.261"/>
	</g>
	<rect x="-178.5" y="22.5" fill="#000000" stroke="#FFFFFF" stroke-miterlimit="10" width="30" height="30"/>
	<rect x="-136.5" y="22.5" fill="#000000" stroke="#FFFFFF" stroke-miterlimit="10" width="30" height="30"/>
	<rect x="-93.5" y="22.5" fill="#000000" stroke="#FFFFFF" stroke-miterlimit="10" width="30" height="30"/>
	<rect x="-49.5" y="22.5" fill="#000000" stroke="#FFFFFF" stroke-miterlimit="10" width="30" height="30"/>
</g>
<g id="Your_Icon">
	<g>
		<defs>
			<rect id="SVGID_1_" x="37.721" y="0.394" width="24.559" height="99.213"/>
		</defs>
		<clipPath id="SVGID_2_">
			<use xlink:href="#SVGID_1_" overflow="visible"/>
		</clipPath>
		<path clip-path="url(#SVGID_2_)" d="M62.013,16.599c0-1.157-3.549-2.313-6.974-3.055c-2.599-0.562-2.2-3.973-2.23-5.587    C52.438,8.549,51.32,8.979,50,8.979c-1.321,0-2.438-0.43-2.809-1.021c-0.029,1.614,0.369,5.024-2.23,5.587    c-3.425,0.741-6.974,1.897-6.974,3.055c0,4.352,5.091,14.249,5.091,19.324c0,4.884-5.358,7.538-4.968,20.25    c0,0,5.039,2.083,11.889,2.083c6.85,0,11.889-2.083,11.889-2.083c0.39-12.712-4.968-15.366-4.968-20.25    C56.922,30.848,62.013,20.95,62.013,16.599"/>
		<path clip-path="url(#SVGID_2_)" d="M51.02,5.57c0.017-0.032,0.026-0.064,0.026-0.099c0-0.189-0.27-0.685-0.651-0.914l0.075-1.231    c0.439-0.463,0.835-1.402,0.835-1.845c0-0.601-0.584-1.088-1.304-1.088c-0.721,0-1.304,0.487-1.304,1.088    c0,0.442,0.396,1.382,0.834,1.845l0.076,1.231c-0.382,0.229-0.652,0.725-0.652,0.914c0,0.034,0.01,0.066,0.026,0.099    c-0.831,0.324-1.41,0.98-1.41,1.463c0,0.662,1.088,1.199,2.43,1.199s2.43-0.537,2.43-1.199C52.431,6.551,51.851,5.895,51.02,5.57"/>
		<path clip-path="url(#SVGID_2_)" d="M37.753,99.606l5.709-4.061c0,0,0.897-0.726,1.638-4.374c0.491-2.418,3.175-2.626,3.175-2.626    v-0.225c0,0.585,0.772,1.903,1.725,1.903c0.953,0,1.724-1.318,1.724-1.903v0.202c0,0,2.685,0.208,3.176,2.627    c0.74,3.647,1.638,4.374,1.638,4.374l5.71,4.061c0,0,0.48-2.29-2.285-3.482c-2.765-1.191-3.532-3.853-3.532-6.423    c0-2.569-0.587-3.065-0.587-3.065l-4.119-3.899v-0.159h-0.001c-0.004-0.357-0.286-1.14-0.717-1.706    c0.475-0.627,0.938-1.644,0.938-3.23c0-2.302-0.571-6.418-0.814-8.672c0.402-0.206,0.661-0.581,0.661-0.916    c0-0.541-0.507-1.343-1.388-1.541l0.283-7.321c-0.228,0.005-0.45,0.013-0.686,0.013c-0.236,0-0.458-0.008-0.687-0.013l0.283,7.321    c-0.881,0.198-1.388,1-1.388,1.541c0,0.335,0.259,0.71,0.661,0.916c-0.244,2.254-0.814,6.37-0.814,8.672    c0,1.587,0.463,2.603,0.938,3.23c-0.431,0.566-0.713,1.349-0.716,1.706h-0.001v0.181l-4.119,3.899c0,0-0.587,0.497-0.587,3.066    s-0.767,5.23-3.533,6.423C37.272,97.316,37.753,99.606,37.753,99.606"/>
	</g>
</g>
<text x="0.0" y="117.5" font-size="5.0" font-weight="bold" font-family="Helvetica Neue, Helvetica, Arial-Unicode, Arial, Sans-serif" fill="#000000">Created by Nada AlYafaei</text><text x="0.0" y="122.5" font-size="5.0" font-weight="bold" font-family="Helvetica Neue, Helvetica, Arial-Unicode, Arial, Sans-serif" fill="#000000">from the Noun Project</text></svg>